<svg width="33" height="31" viewBox="0 0 33 31" fill="none" xmlns="http://www.w3.org/2000/svg">
<path d="M3.40947 0.687208C3.15784 0.379211 2.79101 0.156601 2.37155 0.0573464C1.9521 -0.041908 1.506 -0.0116578 1.10935 0.142937C0.712695 0.297532 0.390061 0.566896 0.196475 0.905084C0.0028898 1.24327 -0.0496566 1.62933 0.0477995 1.99742L5.13726 21.166L4.57573 22.8776C3.76316 22.9725 2.99334 23.2505 2.34286 23.6841C1.69238 24.1177 1.18392 24.6917 0.868078 25.349C0.552236 26.0064 0.440021 26.7241 0.542598 27.4308C0.645175 28.1375 0.958968 28.8086 1.45275 29.3772C1.94654 29.9458 2.6031 30.3922 3.35712 30.6719C4.11113 30.9516 4.9363 31.0549 5.75053 30.9715C6.56476 30.8881 7.33966 30.6209 7.99812 30.1965C8.65658 29.7721 9.17565 29.2053 9.50368 28.5525H18.7361C19.1675 29.4114 19.9262 30.1151 20.8846 30.5451C21.843 30.9752 22.9425 31.1054 23.9984 30.9139C25.0543 30.7225 26.0021 30.221 26.6825 29.4938C27.3629 28.7666 27.7343 27.858 27.7343 26.9209C27.7343 25.9837 27.3629 25.0752 26.6825 24.348C26.0021 23.6208 25.0543 23.1193 23.9984 22.9278C22.9425 22.7363 21.843 22.8666 20.8846 23.2966C19.9262 23.7267 19.1675 24.4303 18.7361 25.2892H9.50368C9.20695 24.6986 8.75247 24.1797 8.18718 23.775L8.88205 21.6588C8.93037 21.5129 8.95503 21.3619 8.9553 21.2101L28.2483 19.6861C28.6446 19.6546 29.0191 19.5145 29.3179 19.2861C29.6166 19.0576 29.8241 18.7526 29.9104 18.4151L32.964 6.48283C33.013 6.29196 33.012 6.09397 32.961 5.90349C32.9101 5.71301 32.8105 5.53491 32.6697 5.38235C32.5289 5.22978 32.3504 5.10666 32.1475 5.02206C31.9446 4.93746 31.7224 4.89356 31.4973 4.8936H6.82561C6.79657 4.84995 6.76523 4.80748 6.73171 4.76633L3.40947 0.687208Z" fill="#D04847"/>
</svg>
