<svg width="33" height="36" viewBox="0 0 33 36" fill="none" xmlns="http://www.w3.org/2000/svg">
<path d="M1 2L4.87431 4.82925C6.38557 5.93286 8.20847 6.5276 10.0798 6.5276V6.5276C12.2201 6.5276 14.2874 5.74995 15.8971 4.33938L15.9833 4.2638C17.6486 2.80451 19.7874 2 22.0015 2H22.0826C23.8365 2 25.5551 2.4935 27.0418 3.42408L32 6.5276" stroke="#173049" stroke-width="3"/>
<path d="M1 15.5828L4.87431 18.412C6.38557 19.5157 8.20847 20.1104 10.0798 20.1104V20.1104C12.2201 20.1104 14.2874 19.3327 15.8971 17.9222L15.9833 17.8466C17.6486 16.3873 19.7874 15.5828 22.0015 15.5828H22.0826C23.8365 15.5828 25.5551 16.0763 27.0418 17.0069L32 20.1104" stroke="#173049" stroke-width="3"/>
<path d="M1 29.1656L4.87431 31.9949C6.38557 33.0985 8.20847 33.6932 10.0798 33.6932V33.6932C12.2201 33.6932 14.2874 32.9156 15.8971 31.505L15.9833 31.4294C17.6486 29.9701 19.7874 29.1656 22.0015 29.1656H22.0826C23.8365 29.1656 25.5551 29.6591 27.0418 30.5897L32 33.6932" stroke="#173049" stroke-width="3"/>
</svg>
