<svg width="38" height="33" viewBox="0 0 38 33" fill="none" xmlns="http://www.w3.org/2000/svg">
<path d="M20.88 4.08993L20.8825 4.08749C21.7186 3.27334 22.7218 2.62233 23.8353 2.17649C24.9488 1.73061 26.1475 1.5 27.3602 1.5C28.5729 1.5 29.7717 1.73061 30.8852 2.17649C31.9986 2.62233 33.0019 3.27334 33.8379 4.08749L33.8417 4.09112C37.3861 7.51877 37.3861 13.0537 33.8417 16.4814L19.0315 30.798L19.0289 30.8006C19.0282 30.801 19.0269 30.8016 19.025 30.8024C19.0192 30.8047 19.0105 30.8068 19 30.8068C18.9895 30.8068 18.9808 30.8047 18.975 30.8024L18.4172 32.1948L18.975 30.8024C18.9731 30.8016 18.9718 30.8009 18.9711 30.8005L18.9685 30.798L4.15833 16.4814C4.15826 16.4813 4.15819 16.4812 4.15812 16.4812C0.614035 13.0536 0.613731 7.52055 4.15858 4.09087L4.15859 4.09088L4.16207 4.08749C4.99812 3.27334 6.0014 2.62233 7.11482 2.17649C8.22835 1.73061 9.42708 1.5 10.6398 1.5C11.8525 1.5 13.0512 1.73061 14.1647 2.17649C15.2782 2.62233 16.2814 3.27334 17.1175 4.08749L17.1175 4.0875L17.1236 4.09342C17.3782 4.33848 17.6151 4.59746 17.8361 4.86933L18.9955 6.2954L20.1603 4.87372C20.3857 4.59861 20.6251 4.33703 20.88 4.08993Z" stroke="#173049" stroke-width="3"/>
</svg>
