<svg width="38" height="31" viewBox="0 0 38 31" fill="none" xmlns="http://www.w3.org/2000/svg">
<path d="M19.836 2.89098C20.8153 1.97593 21.9855 1.24876 23.2777 0.752268C24.5699 0.255775 25.958 0 27.3602 0C28.7625 0 30.1506 0.255775 31.4428 0.752268C32.735 1.24876 33.9051 1.97593 34.8844 2.89098C39.0385 6.74572 39.0385 12.9946 34.8844 16.8494L20.074 30.5871C19.9343 30.7178 19.7673 30.8217 19.5828 30.8926C19.3983 30.9635 19.2002 31 19 31C18.7998 31 18.6017 30.9635 18.4172 30.8926C18.2327 30.8217 18.0657 30.7178 17.926 30.5871L3.11558 16.8494C-1.03853 12.9946 -1.03853 6.74754 3.11558 2.89098C4.09486 1.97593 5.26504 1.24876 6.55723 0.752268C7.84943 0.255775 9.23752 0 10.6398 0C12.042 0 13.4301 0.255775 14.7223 0.752268C16.0145 1.24876 17.1847 1.97593 18.164 2.89098C18.464 3.16814 18.742 3.45989 19 3.7644C19.26 3.45989 19.538 3.16814 19.836 2.89098Z" fill="#D04847"/>
</svg>
