<svg width="120" height="104" viewBox="0 0 120 104" fill="none" xmlns="http://www.w3.org/2000/svg">
<path d="M30.5585 40.4733H32.5585V38.4733V24.7368V16.0003C32.5585 14.3435 33.9016 13.0003 35.5585 13.0003H44.7197H53.881C55.5379 13.0003 56.881 14.3435 56.881 16.0003V24.7368V38.4733V40.4733H58.881H72.6696H84.4395C86.0963 40.4733 87.4395 41.8164 87.4395 43.4733V51.2046V58.936C87.4395 60.5928 86.0964 61.936 84.4395 61.936H72.6696H58.881H56.881V63.936V77.6724V86.4089C56.881 88.0658 55.5379 89.4089 53.881 89.4089H44.7197H35.5585C33.9016 89.4089 32.5585 88.0658 32.5585 86.4089V77.6724V63.936V61.936H30.5585H16.7699H5C3.34315 61.936 2 60.5928 2 58.936V51.2046V43.4733C2 41.8164 3.34315 40.4733 5 40.4733H16.7699H30.5585Z" fill="#0085FF" stroke="white" stroke-width="4"/>
<path d="M57.6615 8.76263V10.9562L57.9614 13.5431L57.9955 13.7276C58.168 14.6599 58.5969 15.5256 59.2343 16.2275C60.1085 16.7591 61.1973 16.7944 62.104 16.3204L62.2817 16.2275L63.1661 15.1537L63.1828 15.128C63.4876 14.6599 64.2146 14.8757 64.2146 15.4343V17.0841V18.6435C64.2146 19.6075 64.5947 20.5325 65.2724 21.2181L65.9185 21.8717C66.1794 22.1355 66.403 22.4337 66.5833 22.7579L66.7543 23.0655C66.9797 23.4707 67.098 23.9268 67.098 24.3905C67.098 24.8542 66.9797 25.3102 66.7543 25.7155L66.5007 26.1717C66.3748 26.398 66.2307 26.6136 66.0696 26.8163L65.6629 27.3283C65.2224 27.8828 64.7363 28.3995 64.2097 28.873L63.1661 29.8113L61.0691 31.9325L58.71 34.5251L57.8107 35.637C57.0168 36.6185 56.376 37.7144 55.9101 38.8876C55.5067 39.903 55.2381 40.967 55.111 42.0522L54.7782 44.8954V50.7877L55.2167 57.0957C55.2737 57.917 55.3983 58.7322 55.5892 59.533L56.0888 61.6294L56.7268 63.7806C56.9998 64.7012 57.1838 65.6459 57.2763 66.6017L57.6615 70.5856V75.0637L57.4195 77.3485C57.2328 79.111 56.7353 80.8264 55.9499 82.4153L55.6974 82.9262C55.2604 83.8103 54.7373 84.6491 54.1356 85.4305L52.9384 86.9855C52.7677 87.2071 52.5677 87.4046 52.3438 87.5723L51.7374 88.0267C51.3415 88.3233 51.1085 88.7892 51.1085 89.2839C51.1085 90.1515 51.8118 90.8548 52.6794 90.8548H79.9971C81.5591 90.8548 82.8253 89.5886 82.8253 88.0266V87.8324C82.8253 87.1869 82.99 86.5521 83.3037 85.9879C83.5076 85.6212 83.771 85.2908 84.083 85.0102L84.6887 84.4656C84.8434 84.3265 84.9739 84.1628 85.075 83.981L85.25 83.6662C85.376 83.4396 85.5856 83.2711 85.834 83.1967C86.4428 83.0142 86.7268 82.3154 86.4179 81.7599L86.2329 81.4273C85.8891 80.809 85.7087 80.1133 85.7087 79.4058V78.3633V76.2421V73.8852L85.4466 71.764V70.5856V69.9143C85.4466 69.2649 85.3584 68.6186 85.1844 67.993C85.0105 67.3674 84.9223 66.7211 84.9223 66.0717V64.4577V62.1008V60.9206C84.9223 59.8252 85.0423 58.733 85.2802 57.6637L85.4466 56.9156L85.8875 55.4619C86.1174 54.7038 86.4071 53.9652 86.7536 53.2529L88.0678 50.552L89.3784 47.0166C89.8471 45.7525 89.4464 44.3303 88.3868 43.4966L88.3115 43.4374C88.1494 43.3098 87.9999 43.1671 87.8649 43.0111L86.5915 41.5389C86.3528 41.263 86.1366 40.9685 85.9449 40.6582L85.9134 40.6073C85.2655 39.5586 84.9223 38.3503 84.9223 37.1177V34.0537V32.5677C84.9223 32.1476 84.8476 31.7309 84.7015 31.3369L84.6304 31.1452C84.4778 30.7335 84.2275 30.365 83.901 30.0714C83.7091 29.8989 83.5429 29.6999 83.4072 29.4804L82.3011 27.6901L82.1134 27.2683C81.8915 26.7694 81.7768 26.2296 81.7768 25.6836C81.7768 24.7008 82.148 23.7543 82.8161 23.0335L83.0875 22.7407C83.9399 21.9742 84.5319 20.9608 84.7808 19.8417L84.7884 19.8076C84.8774 19.4073 84.9223 18.9984 84.9223 18.5883V16.6127L85.0212 14.805C85.024 14.7534 85.0342 14.7025 85.0515 14.6538C85.2062 14.2189 85.8004 14.1671 86.028 14.5686L86.1179 14.7272L86.5445 15.3558C86.7547 15.6655 87.0234 15.931 87.3356 16.1374C87.8046 16.4474 88.3543 16.6127 88.9165 16.6127H88.9437C89.7257 16.6127 90.4759 16.3029 91.0301 15.7511L91.1359 15.6457C91.4618 15.3213 91.7166 14.9327 91.8844 14.5045L92.1835 13.741C92.4095 13.164 92.5603 12.5604 92.6322 11.9449L92.6644 11.6692C92.7688 10.7756 92.744 9.87153 92.5906 8.98496L92.5239 8.5993L92.3971 8.08632C92.1398 7.045 91.5371 6.12162 90.6875 5.46683C90.3407 5.19954 89.9585 4.98154 89.5519 4.81906L86.6284 3.65072C85.8419 3.33643 85.0303 3.08932 84.2021 2.91203L81.4945 2.33236C80.4624 2.1114 79.4098 2 78.3543 2H72.8647L67.848 2.3759C67 2.43944 66.159 2.57497 65.334 2.78103L62.8981 3.38943C62.2057 3.56235 61.5378 3.82123 60.9098 4.16004L60.17 4.55916C59.5537 4.89163 59.0181 5.35552 58.6011 5.918C57.9909 6.74091 57.6615 7.7382 57.6615 8.76263Z" fill="#949BA5" stroke="white" stroke-width="4"/>
<path d="M84.7277 41.8364L85.0047 42.036C86.4107 43.0491 87.1896 44.7198 87.0617 46.4481C87.0297 46.8796 86.9417 47.3052 86.7999 47.714L85.7436 50.7585L84.4737 53.275L83.4578 55.7915L83.1322 56.8912C82.6749 58.4357 82.4694 60.0438 82.5236 61.6537L82.654 65.5289C82.6818 66.3567 82.7782 67.1807 82.942 67.9925L82.9905 68.2327C83.1325 68.9359 83.3288 69.6271 83.5778 70.3C83.836 70.9976 84.0376 71.7149 84.1806 72.4449L84.7277 75.2373L84.927 75.8356C85.3008 76.9579 85.5405 78.1206 85.6412 79.2992L85.9091 82.4361C85.9676 83.1219 85.9034 83.8127 85.7193 84.476L85.6779 84.6252C85.5531 85.0748 85.3626 85.5036 85.1127 85.8976C84.6932 86.5587 84.1166 87.1058 83.4343 87.4899L82.6995 87.9035C82.5291 87.9994 82.3777 88.1256 82.2526 88.2758C81.8965 88.7035 81.7868 89.2849 81.9627 89.8129L82.0741 90.1475C82.3046 90.8396 82.8575 91.3762 83.5562 91.586L83.5956 91.5978C83.8407 91.6714 84.0962 91.704 84.3519 91.6942L107.546 90.8052C107.735 90.7979 107.919 90.8646 108.059 90.9909L108.103 91.0306C108.464 91.3552 108.382 91.9413 107.946 92.1545C107.876 92.1886 107.801 92.2107 107.724 92.2196L102.253 92.8528L96.4111 93.3104L93.6172 93.7679L89.5197 94.6906C88.8666 94.8377 88.2299 95.0503 87.6195 95.3252L87.1791 95.5236C86.7318 95.725 86.3108 95.9804 85.9255 96.2841L85.1251 96.9149C84.7006 97.2495 84.3863 97.7037 84.2229 98.2189C84.0555 98.7466 84.0544 99.3131 84.2199 99.8415L84.2955 100.083C84.4125 100.457 84.6189 100.797 84.8967 101.073C85.2831 101.457 85.7883 101.699 86.3299 101.759L86.9817 101.831C87.9831 101.942 88.99 101.678 89.8074 101.089L90.5546 100.416C91.0686 99.9527 91.6587 99.5822 92.2989 99.3203C92.7707 99.1274 93.2651 98.9953 93.7703 98.9274L96.4111 98.5722L104.095 97.9496L109.92 97.4283L112.808 96.9014C113.389 96.7954 113.958 96.6314 114.507 96.4118L115.149 96.1547C115.691 95.9379 116.19 95.627 116.623 95.2365L116.781 95.0949C117.083 94.8222 117.339 94.5012 117.537 94.145L117.561 94.1006C117.849 93.5824 118 92.9993 118 92.4065C118 91.9461 117.909 91.4901 117.732 91.065L117.566 90.6666C117.349 90.1444 117.054 89.6577 116.692 89.223L115.714 88.0486L115.207 87.363C114.876 86.9168 114.698 86.3763 114.698 85.8212C114.698 85.4793 114.766 85.1408 114.897 84.8252L115.46 83.4731L115.968 81.6429L116.113 80.9259C116.354 79.7307 116.449 78.5106 116.395 77.2925L116.332 75.8952C116.259 74.2477 115.915 72.6236 115.313 71.0882L114.698 69.5179L113.174 66.7727L111.396 64.2562L109.11 61.7396L107.078 59.2231L105.861 57.7157C105.319 57.0442 104.836 56.3272 104.417 55.5727L104.031 54.8764L101.999 50.7585L100.885 48.0841C100.614 47.4332 100.475 46.7336 100.475 46.0286C100.475 44.3949 101.224 42.8476 102.507 41.8364L103.852 40.6249C104.468 40.0694 104.93 39.3634 105.193 38.5759C105.431 37.8618 105.497 37.1017 105.387 36.3571L105.047 34.0581L104.793 30.3977L104.285 25.1359L104.108 24.3417C103.97 23.7189 103.184 23.5151 102.761 23.992L101.044 25.5387C100.667 25.8781 100.239 26.157 99.7769 26.3653C99.2309 26.6112 98.6444 26.7549 98.0466 26.7893L91.6415 27.1575C88.6685 27.3285 85.742 26.3601 83.4578 24.4496C82.7365 23.6556 81.4205 24.2468 81.535 25.3133L81.9338 29.025V31.9991L81.7075 35.0574C81.6891 35.3058 81.6499 35.5523 81.5902 35.7941C81.3213 36.8839 81.4747 38.0351 82.0195 39.0166L82.0631 39.0951C82.3138 39.5468 82.6377 39.9539 83.0216 40.2996L84.7277 41.8364Z" fill="#554F59" stroke="white" stroke-width="4"/>
</svg>
