<svg width="122" height="104" viewBox="0 0 122 104" fill="none" xmlns="http://www.w3.org/2000/svg">
<path d="M31.0498 40.4719H33.0498V38.4719V24.7359V16C33.0498 14.3431 34.3929 13 36.0498 13H45.4387H54.8276C56.4845 13 57.8276 14.3431 57.8276 16V24.7359V38.4719V40.4719H59.8276H73.8379H85.8774C87.5343 40.4719 88.8774 41.815 88.8774 43.4719V51.2028V58.9336C88.8774 60.5905 87.5343 61.9336 85.8774 61.9336H73.8379H59.8276H57.8276V63.9336V77.6696V86.4055C57.8276 88.0624 56.4845 89.4055 54.8276 89.4055H45.4387H36.0498C34.3929 89.4055 33.0498 88.0624 33.0498 86.4055V77.6696V63.9336V61.9336H31.0498H17.0395H5C3.34315 61.9336 2 60.5905 2 58.9336V51.2028V43.4719C2 41.815 3.34315 40.4719 5 40.4719H17.0395H31.0498Z" fill="#173049" stroke="white" stroke-width="4"/>
<path d="M58.5885 8.78114V10.9559L58.8932 13.5426L58.9261 13.7175C59.1024 14.6557 59.5392 15.5253 60.1866 16.227C61.0767 16.7597 62.1787 16.795 63.1012 16.3205L63.283 16.227L64.1816 15.1532L64.2036 15.1199C64.5147 14.6496 65.247 14.8699 65.247 15.4338V17.0835V18.6429C65.247 19.606 65.6307 20.5294 66.3132 21.2088L66.9824 21.875C67.2447 22.1361 67.47 22.4319 67.652 22.7541L67.8289 23.067C68.0569 23.4705 68.1767 23.9262 68.1767 24.3896C68.1767 24.8531 68.0569 25.3087 67.8289 25.7122L67.5686 26.1728C67.4415 26.3977 67.2961 26.6118 67.1339 26.8128L66.7168 27.3295C66.2704 27.8825 65.7784 28.3973 65.2461 28.8683L64.1816 29.8103L62.0509 31.9314L59.6539 34.5239L58.7315 35.6462C57.9306 36.6206 57.283 37.7114 56.811 38.881C56.3998 39.8998 56.1258 40.9686 55.996 42.0595L55.6588 44.8938V50.7858L56.103 57.0748C56.1619 57.9085 56.2904 58.7359 56.4871 59.5483L56.9905 61.6271L57.6331 63.7594C57.9143 64.6925 58.1039 65.6507 58.1992 66.6205L58.5885 70.583V75.0609L58.3465 77.3099C58.1543 79.0956 57.643 80.8322 56.8369 82.4372L56.5954 82.9181C56.1497 83.8055 55.617 84.6464 55.0051 85.4285L53.7886 86.9834C53.6158 87.2043 53.4137 87.4007 53.188 87.5671L52.5667 88.0253C52.1664 88.3205 51.9301 88.7882 51.9301 89.2856C51.9301 90.1504 52.6312 90.8515 53.496 90.8515H81.3287C82.8907 90.8515 84.1569 89.5853 84.1569 88.0233V87.837C84.1569 87.1867 84.325 86.5474 84.6449 85.9812C84.8508 85.6168 85.1159 85.2893 85.4293 85.0119L86.0503 84.4624C86.2074 84.3234 86.3403 84.1592 86.4435 83.9765L86.6207 83.663C86.7487 83.4364 86.9599 83.2685 87.2095 83.1949C87.8277 83.0126 88.1154 82.3023 87.7983 81.7411L87.6193 81.4243C87.2701 80.8063 87.0866 80.1086 87.0866 79.3988V78.3604V76.2393V73.8825L86.8203 71.7614V70.583V69.9128C86.8203 69.2629 86.7307 68.616 86.5539 67.9905C86.3772 67.365 86.2876 66.7181 86.2876 66.0682V64.4553V62.0985V60.9443C86.2876 59.8318 86.4114 58.7227 86.6566 57.6375L86.8203 56.9135L87.2646 55.4717C87.5007 54.7058 87.7977 53.9601 88.1529 53.2417L89.4836 50.5502L90.8153 47.0149C91.2903 45.7541 90.8874 44.331 89.8221 43.5062L89.7281 43.4334C89.5655 43.3075 89.4153 43.1663 89.2795 43.0118L87.9802 41.5336C87.74 41.2603 87.5221 40.9681 87.3286 40.6599L87.2901 40.5986C86.6351 39.5553 86.2876 38.3483 86.2876 37.1164V34.0525V32.5712C86.2876 32.1482 86.2112 31.7286 86.0621 31.3327L85.9929 31.1492C85.8366 30.7342 85.5813 30.3637 85.2493 30.0699C85.0547 29.8977 84.8858 29.6986 84.7476 29.4785L83.6242 27.6892L83.4333 27.2667C83.208 26.7685 83.0916 26.2279 83.0916 25.6812C83.0916 24.7002 83.4661 23.7563 84.1386 23.0421L84.4232 22.7399C85.2891 21.9737 85.8948 20.9424 86.1497 19.8147C86.2407 19.4121 86.2876 18.9964 86.2876 18.5836V16.6122L86.3879 14.8069C86.3908 14.7537 86.4015 14.7013 86.4196 14.6512C86.5779 14.2132 87.1762 14.1605 87.4087 14.564L87.5024 14.7267L87.9313 15.3487C88.1479 15.6628 88.4238 15.9314 88.7435 16.1394C89.2178 16.4479 89.7714 16.6122 90.3372 16.6122H90.3725C91.1685 16.6122 91.9328 16.3001 92.5013 15.743L92.5952 15.651C92.9301 15.3228 93.1927 14.9282 93.3661 14.4925L93.6638 13.7448C93.8945 13.1651 94.0486 12.5578 94.1222 11.9383L94.154 11.6701C94.2602 10.7758 94.2349 9.8708 94.079 8.98384L94.0114 8.59905L93.888 8.1076C93.6231 7.05277 93.0065 6.11976 92.14 5.46251C91.7912 5.19799 91.4078 4.9826 91.0004 4.8224L87.989 3.63803C87.2112 3.33215 86.4092 3.0918 85.5914 2.9195L82.7566 2.32224C81.7398 2.10799 80.7034 2 79.6642 2H74.0361L68.8992 2.3788C68.0639 2.4404 67.2352 2.57185 66.4218 2.77178L63.9001 3.39163C63.2027 3.56306 62.5291 3.82009 61.8948 4.15688L61.1224 4.56698C60.506 4.89424 59.9689 5.35272 59.549 5.91011C58.9257 6.73748 58.5885 7.74524 58.5885 8.78114Z" fill="#173049" stroke="white" stroke-width="4"/>
<path d="M86.0898 41.8348L86.3972 42.0528C87.8079 43.0531 88.5912 44.7195 88.4615 46.444C88.429 46.877 88.3393 47.3039 88.195 47.7134L87.1221 50.7566L85.8318 53.273L84.7995 55.7894L84.4787 56.8558C84.0076 58.422 83.7957 60.0547 83.8516 61.6893L83.9821 65.5069C84.0108 66.3476 84.1102 67.1844 84.2793 68.0084L84.3245 68.2288C84.4689 68.9329 84.6685 69.6245 84.9215 70.2973C85.1838 70.9949 85.3888 71.7128 85.5343 72.4437L86.0898 75.2345L86.2848 75.8105C86.6696 76.9475 86.9165 78.1265 87.0203 79.3223L87.2899 82.4295C87.3496 83.1175 87.2841 83.8105 87.0967 84.4752L87.0574 84.6147C86.9292 85.0691 86.734 85.5019 86.4782 85.8987C86.0538 86.557 85.4733 87.1001 84.7882 87.4797L84.0241 87.903C83.8543 87.9971 83.7029 88.1213 83.5775 88.2695C83.2148 88.6982 83.1031 89.2856 83.2831 89.8176L83.3966 90.1529C83.629 90.8395 84.1808 91.3702 84.8759 91.5756L84.9438 91.5957C85.1901 91.6684 85.4465 91.7006 85.7031 91.6909L109.284 90.8014C109.47 90.7944 109.652 90.8595 109.792 90.9832L109.836 91.0224C110.202 91.3471 110.12 91.94 109.679 92.1523C109.61 92.1856 109.535 92.2071 109.459 92.2158L103.897 92.8494L97.9611 93.3069L95.1223 93.7644L90.9541 94.6881C90.2936 94.8345 89.6493 95.0463 89.0309 95.3205L88.572 95.5238C88.1232 95.7227 87.7002 95.9754 87.3124 96.2762L86.4846 96.9183C86.0593 97.2482 85.7434 97.6987 85.5783 98.211C85.4075 98.7411 85.4064 99.3113 85.5752 99.842L85.6477 100.07C85.7686 100.45 85.9809 100.794 86.2659 101.073C86.656 101.455 87.1628 101.694 87.7052 101.754L88.3884 101.828C89.4014 101.939 90.42 101.674 91.2512 101.085L92.0043 100.417C92.5306 99.9508 93.1332 99.5781 93.7856 99.3155C94.2632 99.1233 94.763 98.9918 95.2733 98.9243L97.9611 98.5685L105.769 97.9459L111.687 97.4247L114.627 96.8969C115.214 96.7915 115.789 96.6282 116.344 96.4096L117.009 96.1478C117.554 95.9331 118.057 95.6245 118.495 95.236L118.663 95.0866C118.968 94.8171 119.225 94.4988 119.424 94.1449L119.453 94.0938C119.744 93.5779 119.897 92.9957 119.897 92.4034C119.897 91.9428 119.805 91.487 119.625 91.0628L119.455 90.6599C119.235 90.1399 118.937 89.6562 118.573 89.2252L117.574 88.0453L117.055 87.3553C116.722 86.9123 116.542 86.373 116.542 85.8186C116.542 85.4764 116.611 85.1377 116.744 84.8226L117.316 83.47L117.832 81.6399L117.974 80.9504C118.223 79.7371 118.32 78.4977 118.264 77.2604L118.204 75.9289C118.129 74.2576 117.775 72.6108 117.156 71.0564L116.542 69.5153L114.994 66.7702L113.187 64.2537L110.865 61.7373L108.8 59.2209L107.563 57.7131C107.012 57.042 106.521 56.3243 106.094 55.5682L105.703 54.8744L103.639 50.7566L102.508 48.0834C102.232 47.432 102.09 46.732 102.09 46.0247C102.09 44.3917 102.864 42.8356 104.155 41.8348L105.532 40.6135C106.152 40.0646 106.617 39.3636 106.882 38.5799C107.125 37.8625 107.193 37.0975 107.08 36.3486L106.735 34.0568L106.477 30.3966L105.961 25.135L105.784 24.3503C105.642 23.7189 104.846 23.5106 104.413 23.9911L102.673 25.5333C102.287 25.8757 101.85 26.1565 101.378 26.3657C100.825 26.6107 100.232 26.7538 99.6285 26.788L93.0845 27.1583C90.0805 27.3282 87.1226 26.3609 84.7995 24.4487C84.0613 23.6489 82.7304 24.2545 82.8485 25.3365L83.2511 29.024V31.9979L83.0211 35.0559C83.0024 35.3044 82.9625 35.5509 82.9019 35.7927C82.629 36.8814 82.7843 38.0332 83.3356 39.0108L83.3856 39.0994C83.6383 39.5473 83.9636 39.95 84.3484 40.2911L86.0898 41.8348Z" fill="#173049" stroke="white" stroke-width="4"/>
</svg>
