<svg width="26" height="37" viewBox="0 0 26 37" fill="none" xmlns="http://www.w3.org/2000/svg">
<path fill-rule="evenodd" clip-rule="evenodd" d="M22.7502 13.4993C22.7548 15.669 22.0837 17.782 20.8371 19.5231L13.0002 30.3758L5.16341 19.5231C4.24584 18.2355 3.63546 16.7404 3.38239 15.1603C3.12932 13.5802 3.2408 11.9604 3.70766 10.4338C4.17452 8.90712 4.98345 7.51729 6.06799 6.37843C7.15253 5.23956 8.48176 4.38414 9.94647 3.88246C11.4112 3.38077 12.9696 3.24712 14.4937 3.49247C16.0179 3.73783 17.4641 4.3552 18.714 5.29387C19.9637 6.23254 20.9812 7.46572 21.6828 8.89213C22.3845 10.3186 22.7504 11.8975 22.7502 13.4993ZM26.0002 13.4993C26.0002 16.5146 25.0491 19.2958 23.4436 21.5415L15.0304 33.1885L13.0002 36.0013L10.9679 33.1885L2.55691 21.5415C1.33206 19.8255 0.516723 17.8323 0.17788 15.7254C-0.160961 13.6186 -0.0136358 11.4583 0.607755 9.42209C1.22914 7.38587 2.30687 5.53185 3.75236 4.01233C5.19786 2.49281 6.96989 1.35117 8.92284 0.681213C10.8758 0.0112547 12.954 -0.167901 14.9865 0.158464C17.0191 0.484829 18.9482 1.3074 20.6151 2.55859C22.282 3.80979 23.6393 5.4539 24.5756 7.35583C25.5117 9.25777 25.9999 11.3632 26.0002 13.4993ZM13.0002 17.9997C14.1496 17.9997 15.2517 17.5255 16.0643 16.6816C16.8771 15.8375 17.3336 14.6928 17.3336 13.4993C17.3336 12.3057 16.8771 11.161 16.0643 10.317C15.2517 9.47302 14.1496 8.99888 13.0002 8.99888C11.8509 8.99888 10.7488 9.47302 9.93611 10.317C9.12346 11.161 8.66691 12.3057 8.66691 13.4993C8.66691 14.6928 9.12346 15.8375 9.93611 16.6816C10.7488 17.5255 11.8509 17.9997 13.0002 17.9997Z" fill="#D04847"/>
</svg>
