<svg width="31" height="30" viewBox="0 0 31 30" fill="none" xmlns="http://www.w3.org/2000/svg">
<path fill-rule="evenodd" clip-rule="evenodd" d="M11.6339 3.75415C9.57691 3.75415 7.60417 4.54489 6.14965 5.95242C4.69511 7.35997 3.87798 9.26899 3.87798 11.2596C3.87798 13.2501 4.69511 15.1592 6.14965 16.5667C7.60417 17.9742 9.57691 18.7649 11.6339 18.7649C13.691 18.7649 15.6637 17.9742 17.1182 16.5667C18.5727 15.1592 19.3899 13.2501 19.3899 11.2596C19.3899 9.26899 18.5727 7.35997 17.1182 5.95242C15.6637 4.54489 13.691 3.75415 11.6339 3.75415ZM2.2e-07 11.2596C-0.000233435 9.48771 0.431701 7.74085 1.26067 6.16101C2.08965 4.58118 3.29226 3.21299 4.77067 2.16774C6.2491 1.12247 7.96161 0.429645 9.7689 0.145604C11.5762 -0.138437 13.4272 -0.00567108 15.1715 0.533102C16.9158 1.07188 18.504 2.00145 19.8071 3.24621C21.1101 4.49097 22.0911 6.01577 22.6704 7.69661C23.2496 9.37744 23.4107 11.1668 23.1405 12.9193C22.8704 14.6717 22.1766 16.3377 21.1156 17.7817L30.4557 26.8201C30.8089 27.174 31.0043 27.648 30.9999 28.14C30.9954 28.632 30.7916 29.1026 30.432 29.4504C30.0726 29.7983 29.5863 29.9957 29.0778 29.9999C28.5694 30.0043 28.0797 29.8151 27.714 29.4733L18.3758 20.4368C16.6353 21.6345 14.5877 22.3454 12.4574 22.4916C10.3271 22.6379 8.19625 22.2139 6.29841 21.2661C4.40058 20.3183 2.80899 18.8833 1.69802 17.1182C0.587048 15.3531 -0.000415042 13.3262 2.2e-07 11.2596Z" fill="#D04847"/>
</svg>
