<svg width="42" height="40" viewBox="0 0 42 40" fill="none" xmlns="http://www.w3.org/2000/svg">
<path fill-rule="evenodd" clip-rule="evenodd" d="M41.3793 20C41.3793 31.0457 32.1162 40 20.6897 40C9.26307 40 0 31.0457 0 20C0 8.9543 9.26307 0 20.6897 0C32.1162 0 41.3793 8.9543 41.3793 20ZM20.974 28.9372H19.3663C19.3663 28.9372 15.819 29.146 12.6952 25.9666C9.28848 22.4989 6.27973 15.6175 6.27973 15.6175C6.27973 15.6175 6.10629 15.1664 6.2947 14.9483C6.50648 14.703 7.0834 14.6873 7.0834 14.6873L10.9265 14.6627C10.9265 14.6627 11.2887 14.722 11.548 14.9079C11.7616 15.0614 11.8813 15.3484 11.8813 15.3484C11.8813 15.3484 12.5024 16.884 13.3251 18.2733C14.9306 20.9854 15.6784 21.5786 16.2236 21.2881C17.0177 20.8644 16.7797 17.4541 16.7797 17.4541C16.7797 17.4541 16.7943 16.2162 16.3798 15.665C16.0589 15.2377 15.4535 15.1132 15.1862 15.0782C14.97 15.05 15.325 14.5592 15.785 14.3389C16.4766 14.0077 17.698 13.9888 19.141 14.0034C20.2653 14.0145 20.5888 14.083 21.0284 14.1869C22.0484 14.4276 22.0166 15.1991 21.948 16.8636C21.9275 17.3609 21.9037 17.938 21.9037 18.6045C21.9037 18.7545 21.8992 18.9143 21.8946 19.0787C21.8708 19.9312 21.8435 20.9072 22.4174 21.2699C22.7117 21.4555 23.4318 21.2977 25.2326 18.3082C26.0863 16.8915 26.7264 15.2256 26.7264 15.2256C26.7264 15.2256 26.8663 14.9286 27.0835 14.8012C27.3059 14.6713 27.6057 14.7112 27.6057 14.7112L31.65 14.6866C31.65 14.6866 32.8652 14.5449 33.062 15.081C33.2683 15.644 32.6077 16.9583 30.9555 19.111C29.3883 21.153 28.6257 21.9051 28.6953 22.5701C28.7462 23.0563 29.2419 23.4959 30.1931 24.3589C32.1838 26.1653 32.7144 27.1138 32.8405 27.3392C32.8507 27.3575 32.8582 27.371 32.8637 27.3798C33.7546 28.824 31.8756 28.9372 31.8756 28.9372L28.2838 28.9861C28.2838 28.9861 27.5118 29.1357 26.496 28.4535C25.9648 28.0971 25.4454 27.515 24.9506 26.9605C24.1941 26.1127 23.495 25.3291 22.8983 25.514C21.8971 25.8246 21.9285 27.9335 21.9285 27.9335C21.9285 27.9335 21.9358 28.3839 21.7076 28.6238C21.4597 28.8851 20.974 28.9372 20.974 28.9372Z" fill="white"/>
</svg>
